<svg width="659" height="552" viewBox="0 0 659 552" fill="none" xmlns="http://www.w3.org/2000/svg">
<path d="M417.89 532.94C549.825 532.94 656.78 425.985 656.78 294.05C656.78 162.115 549.825 55.1602 417.89 55.1602C285.955 55.1602 179 162.115 179 294.05C179 425.985 285.955 532.94 417.89 532.94Z" fill="white" stroke="white" stroke-width="0.99" stroke-miterlimit="10"/>
<path d="M352.5 243.03L333.43 236.59C328.33 234.53 323.24 232.46 318.12 230.41C315.48 229.51 312.84 228.6 310.18 227.72C307.81 226.91 305.45 226.1 303.08 225.31C298.55 222.31 293.41 223.87 292.08 226.66C291.36 228.24 291.76 230.45 293.08 232.41C293.538 233.076 294.075 233.684 294.68 234.22L307.63 240.03L339.38 251.62C337.12 254.05 334.89 256.49 332.64 258.92C328.26 257.213 323.877 255.493 319.49 253.76L307.49 248.93L292.03 243.52C290.54 242.98 289.03 242.46 287.54 241.94C281.34 240.68 276.76 242.05 276.24 244.06C275.79 245.8 278.24 248.41 281.77 250.35C281.803 250.379 281.84 250.403 281.88 250.42C296.547 256.58 311.213 262.72 325.88 268.84L320.08 276.33L312.01 273.1L275.68 257.79C275.612 257.744 275.538 257.707 275.46 257.68C276.181 258.213 276.94 258.695 277.73 259.12C291.957 265.12 306.187 271.08 320.42 277C320.521 276.946 320.617 276.886 320.71 276.82C325.78 273.67 328.13 269.82 330.25 265.75C331.25 263.75 332.25 261.75 333.5 259.69C333.705 259.319 333.929 258.959 334.17 258.61C334.665 257.839 335.209 257.1 335.8 256.4C336.105 255.949 336.439 255.518 336.8 255.11C337.758 254.017 338.787 252.988 339.88 252.03C340.17 251.76 340.44 251.51 340.73 251.26C341.02 251.01 341.59 250.57 342.02 250.26C342.209 250.1 342.406 249.949 342.61 249.81L343.15 249.4C343.24 249.33 343.35 249.27 343.46 249.17C343.85 248.9 344.23 248.63 344.63 248.39C345.03 248.15 345.54 247.8 346.01 247.51L347.39 246.69C348.83 245.877 350.293 245.14 351.78 244.48L352.78 244.03C352.92 243.97 353.08 243.92 353.21 243.85C353.73 243.63 354.27 243.4 354.79 243.2C355.79 242.82 356.73 242.46 357.72 242.14C358.71 241.82 359.72 241.46 360.72 241.14C361.72 240.82 362.62 240.57 363.57 240.33C364.31 240.12 365.03 239.94 365.75 239.76C361.337 240.853 356.92 241.943 352.5 243.03ZM245.5 252.8C240.41 250.038 235.82 246.441 231.92 242.16C227.14 236.88 223.92 231.11 218.75 216.47C216.75 210.86 215.42 206.66 214.45 203.3C211.72 194.02 210.45 189.87 209.45 186.96C209.11 185.96 208.82 185.11 208.75 184.88C208.743 184.861 208.743 184.839 208.75 184.82C208.29 183.53 207.75 182.27 207.23 181.05C178.167 236.263 171.857 300.655 189.65 360.46C190.1 361.98 190.57 363.46 191.05 364.95C203.05 355.8 229.42 348.51 239.84 352.95C241.317 353.721 242.978 354.067 244.64 353.95C250.53 353.27 251.56 345.95 260.06 337.58C263.29 334.42 266.4 331.33 271.54 329.41C278.69 326.73 282.54 329.03 285 326.23C288.41 322.36 282 316.58 282.88 307.5C284.12 295.43 297.43 285.74 307.24 281.61L271.58 266.5L245.5 252.8ZM217.85 192.17C216.14 185.94 215.48 182.52 212.94 176.29C213.03 176.61 213.3 177.35 213.59 178.29C214.49 180.88 215.64 184.56 217.89 192.16L217.85 192.17ZM372.38 228.23C360.74 224.35 351.14 220.63 349.74 220.12C348.9 219.8 348.14 219.51 347.39 219.26C345.05 218.42 342.46 217.5 339.61 216.53L338.87 216.28L338.35 216.1L338.01 215.99C331.36 213.71 323.47 211.14 314.5 208.44C310.1 207.13 303.85 206.44 302.25 208.44C302.163 208.525 302.089 208.623 302.03 208.73C301.959 208.866 301.905 209.01 301.87 209.16C301.799 209.439 301.799 209.731 301.87 210.01C302.132 211.203 302.674 212.317 303.45 213.26C303.922 213.936 304.433 214.583 304.98 215.2C308.54 216.44 311.88 217.64 314.98 218.79C321.57 221.22 326.98 223.36 331.17 225.08C337.55 227.67 342.65 230.08 350.38 232.92L353.88 234.21L367.88 239.21C369.39 238.88 370.88 238.56 372.3 238.27C374.22 237.88 376.06 237.52 377.78 237.21L379.58 236.89C382.383 236.41 385.217 236.132 388.06 236.06V236.06C388.803 236.106 389.547 236.106 390.29 236.06C391.45 235.991 392.596 235.772 393.7 235.41C393.7 235.41 393.97 235.3 394.31 235.19L394.69 235.05C389.46 233.6 381.68 231.32 372.38 228.23ZM417.83 54.23C380.309 54.1825 343.31 63.0197 309.86 80.0183C276.41 97.0169 247.461 121.694 225.38 152.03C235.38 158.5 243.9 160.5 250.3 161.03C258.21 161.64 262.02 159.83 271 162.2C272.17 162.52 273.32 162.86 274.43 163.2C280.131 165.297 285.502 168.2 290.38 171.82C291.05 172.27 291.71 172.74 292.38 173.22C293.05 173.7 293.53 174.05 294.02 174.46L295.4 175.54C295.81 175.85 296.17 176.15 296.46 176.4L297.18 177C298.18 177.88 299.32 178.79 300.47 179.66L301.22 180.25C301.53 180.52 301.85 180.77 302.16 181.02C302.47 181.27 302.86 181.54 303.22 181.83C304.1 182.53 305.03 183.23 305.97 183.93C313.966 190.063 322.336 195.694 331.03 200.79C333.858 202.393 336.768 203.845 339.75 205.14L340.32 205.41C346.32 208.08 353.98 211.05 365.16 215.34C378.99 220.63 386.74 222.98 390.16 223.95C396.88 225.95 402.61 227.31 406.8 228.26C402.86 230.47 398.91 232.72 394.97 234.91C394.898 234.943 394.828 234.979 394.76 235.02C394.853 234.999 394.943 234.969 395.03 234.93C395.33 234.84 395.64 234.7 395.98 234.59C396.59 234.37 397.27 234.12 397.98 233.82C398.47 233.64 398.98 233.44 399.53 233.19C399.939 233.038 400.34 232.865 400.73 232.67C402.731 231.793 404.675 230.791 406.55 229.67C406.86 229.49 407.2 229.29 407.55 229.08C408.18 228.7 408.81 228.29 409.46 227.84C409.8 227.62 410.12 227.39 410.46 227.17C411.808 226.211 413.104 225.18 414.34 224.08C415.96 222.63 434.68 205.68 429.34 195.03C426.95 190.3 420.43 188.03 415.52 187.89C411.497 187.792 407.557 189.046 404.33 191.45C401.256 193.891 399.013 197.223 397.91 200.99C395.33 208.36 397.48 213.79 396.48 214.07C395.04 214.45 387.69 204.23 389.81 193.12C392.07 181.24 403.81 175.73 405.75 174.79C412.88 171.45 419.24 171.9 426.47 172.42C435.934 173.269 445.145 175.934 453.6 180.27C460.05 183.49 465.3 187.71 475.52 195.98C497.79 214.07 500.27 220.06 501.22 224.55C502.12 228.83 502.75 237.11 499.3 238.82C498.09 239.43 496.6 239.09 494.86 238.06C498.63 240.92 502.55 243.99 506.7 247.21C515.088 253.864 522.471 261.695 528.62 270.46C534.77 279.21 540.52 287.62 538.13 295.8C537.23 298.91 535.31 301.46 536.55 303.2C538.38 305.77 543.86 302 550.55 304.53C557.24 307.06 559.91 313.66 560.07 314.04C561.8 318.33 560.14 319.88 561.65 323.29C563.99 328.5 569.54 328.29 575.65 331.99C585.65 337.99 582.5 345.41 592.56 354.45C600.27 361.37 604.22 358.87 613.94 365.27C623.66 371.67 628.55 380.02 633.21 388.27C633.69 389.1 634.16 389.94 634.61 390.79C638.072 383.235 641.12 375.497 643.74 367.61V367.61C651.842 343.323 655.956 317.883 655.92 292.28C655.82 160.79 549.26 54.21 417.8 54.21L417.83 54.23ZM489.63 234.23C491.241 235.671 492.974 236.969 494.81 238.11C493.02 236.76 491.29 235.45 489.6 234.21L489.63 234.23Z" fill="#FBB47F" stroke="#FBB47F" stroke-width="4.52" stroke-linecap="round" stroke-linejoin="round"/>
<path d="M316.22 279.95C311.97 282.67 310.22 281.83 304.64 284.14C304.24 284.3 303.82 284.46 303.4 284.67L268.52 269.12C260.053 264.393 251.577 259.697 243.09 255.03C238.08 252.144 233.599 248.424 229.84 244.03C225.17 238.59 222.06 232.64 216.98 217.55C214.98 211.77 213.72 207.44 212.77 203.98C210.11 194.4 208.85 190.13 207.93 187.13C207.6 186.06 207.31 185.22 207.25 184.99C207.245 184.979 207.242 184.967 207.242 184.955C207.242 184.943 207.245 184.931 207.25 184.92C206.81 183.6 206.33 182.29 205.78 181.04C202.465 173.623 197.89 166.837 192.26 160.98C159.853 140.667 126.923 120.35 93.47 100.03C66.3167 83.5302 39.3167 67.3468 12.47 51.4802C11.24 50.5602 0.959996 42.7802 2.24 33.9702C2.86 29.6702 6.41 24.5002 6.38 24.5502C6.29134 24.6837 6.24277 24.8399 6.24 25.0002C6.3 26.5702 12.24 27.5802 15.36 28.0002C43.9333 47.2935 72.44 66.6768 100.88 86.1502C132.753 107.97 164.537 129.913 196.23 151.98C196.23 151.98 206.86 162.48 211.23 175.92C211.227 175.943 211.227 175.967 211.23 175.99C211.242 176.029 211.259 176.066 211.28 176.1C211.37 176.43 211.63 177.2 211.92 178.1C212.75 180.82 213.92 184.6 216.08 192.44C216.28 193.23 216.52 194.04 216.76 194.92C217 195.8 217.33 196.92 217.64 198.09C217.86 198.83 218.1 199.6 218.35 200.41C219.07 202.76 219.91 205.41 220.97 208.52C226.05 223.61 229.16 229.52 233.82 235C237.587 239.389 242.071 243.109 247.08 246C255.467 250.667 263.863 255.334 272.27 260C272.976 260.55 273.721 261.048 274.5 261.49C288.42 267.67 302.327 273.824 316.22 279.95Z" fill="white" stroke="white" stroke-width="4.27" stroke-miterlimit="10"/>
<path d="M404.72 228.27C403.491 229.75 401.982 230.973 400.28 231.87C400.28 231.87 397.76 233.19 388.73 234.01C381.33 231.81 375.36 229.76 371.12 228.24C363.7 225.58 353.4 221.63 349.01 219.88C348.2 219.55 347.45 219.25 346.72 218.99C343.16 217.6 340.72 216.74 339.13 216.18L338.4 215.92C338.2 215.85 338.05 215.78 337.89 215.74L337.56 215.62C324.04 210.88 305.56 204.51 302.64 207.84C302.553 207.929 302.479 208.03 302.42 208.14C302.34 208.275 302.289 208.424 302.27 208.58C302.199 208.869 302.199 209.171 302.27 209.46C302.545 210.672 303.069 211.813 303.81 212.81C304.2 213.39 304.71 214.06 305.31 214.81C307.437 215.737 309.593 216.667 311.78 217.6C324.09 222.87 336.7 228.06 349.65 233.08L353.06 234.4C357.64 236.167 362.2 237.887 366.74 239.56C366.06 239.75 365.37 239.93 364.69 240.1C360.38 241.24 356.06 242.38 351.74 243.49L333.12 236.84C328.12 234.73 323.12 232.59 318.12 230.47C315.547 229.537 312.963 228.617 310.37 227.71C308.063 226.87 305.753 226.04 303.44 225.22C299.01 222.08 293.99 223.73 292.74 226.62C292.03 228.24 292.43 230.52 293.74 232.54C294.185 233.219 294.709 233.843 295.3 234.4L307.88 240.4C318.2 244.4 328.533 248.383 338.88 252.35C336.67 254.86 334.49 257.35 332.29 259.88C328.02 258.11 323.73 256.34 319.46 254.55L307.72 249.55L292.64 244.03C291.19 243.47 289.72 242.94 288.26 242.41C282.21 241.1 277.74 242.52 277.26 244.59C276.82 246.38 279.26 249.08 282.66 251.08L282.77 251.14C297.083 257.493 311.393 263.827 325.7 270.14C323.81 272.72 321.94 275.28 320.04 277.86L312.16 274.54L276.75 258.76C276.685 258.707 276.61 258.666 276.53 258.64C268.14 253.96 259.73 249.32 251.34 244.64C246.327 241.757 241.846 238.036 238.09 233.64C233.42 228.2 230.31 222.25 225.23 207.17C224.17 204.08 223.33 201.4 222.61 199.06C222.37 198.24 222.12 197.48 221.9 196.73C221.59 195.59 221.29 194.55 221.02 193.57C220.75 192.59 220.54 191.87 220.34 191.08C218.14 183.25 217.01 179.46 216.18 176.74C215.89 175.81 215.63 175.05 215.54 174.74C215.534 174.7 215.534 174.66 215.54 174.62C215.534 174.597 215.534 174.573 215.54 174.55C213.381 167.78 209.877 161.516 205.237 156.134C200.597 150.752 194.918 146.363 188.54 143.23C159.587 125.443 130.677 107.59 101.81 89.6699C73.41 72.0433 45.05 54.3499 16.73 36.5899C13.18 33.1799 9.35 28.3299 10.59 23.5899C10.59 23.4599 10.66 23.3599 10.72 23.1499C11.84 19.3599 15.3 9.82992 24.57 4.34992C25.549 3.67841 26.6113 3.1372 27.73 2.73992C33.42 0.99992 39.02 4.79992 40.99 6.27992L121.22 67.6899C150.213 89.9166 179.267 112.163 208.38 134.43L220.38 144.08C222.699 146.111 225.14 147.998 227.69 149.73C237.47 156.4 245.77 158.47 252.02 158.98C259.75 159.61 263.47 157.75 272.24 160.19C273.38 160.51 274.51 160.86 275.59 161.26C281.208 163.369 286.459 166.349 291.15 170.09C291.81 170.55 292.45 171.04 293.07 171.53C293.69 172.02 294.19 172.41 294.68 172.81C295.17 173.21 295.62 173.6 296.02 173.92L297.02 174.81L297.73 175.43C298.73 176.34 299.82 177.27 300.94 178.18C301.173 178.392 301.417 178.593 301.67 178.78C301.98 179.06 302.29 179.32 302.59 179.57L303.59 180.41C304.45 181.13 305.35 181.85 306.28 182.57C315.193 189.61 324.582 196.025 334.38 201.77C336.08 202.77 337.69 203.61 339.27 204.44L339.82 204.72C346.56 208.16 353.16 210.72 364.09 214.95C377.39 220.101 390.952 224.547 404.72 228.27V228.27Z" fill="#332F30" stroke="#332F30" stroke-width="4.52" stroke-linecap="round" stroke-linejoin="round"/>
<path d="M455.8 242.59C460.63 243.69 464.57 244.49 467.24 245.01C469.18 245.4 468.39 245.28 481.45 248.66C486.82 250.04 488.45 250.45 488.45 251.14C488.45 252.37 483.64 253.76 479.33 254.09C474.68 254.45 471.47 253.52 462.81 251.09L449.59 247.38C449.51 246.208 449.835 245.043 450.51 244.08C451.13 243.317 451.972 242.764 452.919 242.497C453.866 242.23 454.872 242.263 455.8 242.59V242.59Z" fill="#332F30" stroke="#332F30" stroke-width="4.52" stroke-linecap="round" stroke-linejoin="round"/>
<path d="M422.08 272.73C427.66 274.38 433.68 275.93 440.08 277.27C448.106 278.96 456.218 280.215 464.38 281.03C467.15 282.53 467.66 283.44 467.56 284.03C467.1 286.78 451.26 286.49 439.04 284.68C433.889 283.915 428.797 282.796 423.8 281.33L412.94 279.33C411.62 276.9 412.15 275.33 412.25 275.06C413.21 272.52 417.3 271.03 422.08 272.73Z" fill="#332F30" stroke="#332F30" stroke-width="4.52" stroke-linecap="round" stroke-linejoin="round"/>
<path d="M403.52 287.86L420.13 290.61L431.85 292.67L444.35 295.17C449.59 296.37 457.35 298.34 457.22 299.66C457.09 300.98 449.49 301.11 444.1 301.07L404.8 296.84L395.29 295.59C395 295.13 393.64 292.8 394.41 290.59C395.38 287.97 399.27 286.23 403.52 287.86Z" fill="#332F30" stroke="#332F30" stroke-width="4.52" stroke-linecap="round" stroke-linejoin="round"/>
<path d="M436.87 257.46L447.73 259.46L462.44 262.29C473.233 264.917 478.567 266.794 478.44 267.92C478.353 268.68 475.717 269.09 470.53 269.15C465.317 268.264 460.067 267.387 454.78 266.52C447.52 265.34 440.32 264.214 433.18 263.14C432.792 262.576 432.559 261.919 432.505 261.237C432.451 260.554 432.576 259.869 432.87 259.25C433.238 258.545 433.833 257.984 434.559 257.659C435.285 257.335 436.099 257.264 436.87 257.46V257.46Z" fill="#332F30" stroke="#332F30" stroke-width="4.52" stroke-linecap="round" stroke-linejoin="round"/>
<path d="M391.31 302.03C390.538 300.739 390.058 299.295 389.904 297.799C389.75 296.302 389.926 294.791 390.42 293.37C391.074 291.699 392.18 290.242 393.614 289.164C395.048 288.085 396.753 287.425 398.54 287.26" fill="#332F30"/>
<path d="M391.31 302.03C390.538 300.739 390.058 299.295 389.904 297.799C389.75 296.302 389.926 294.791 390.42 293.37C391.074 291.699 392.18 290.242 393.614 289.164C395.048 288.085 396.753 287.425 398.54 287.26" stroke="#332F30" stroke-width="3.98" stroke-linecap="round" stroke-linejoin="round"/>
<path d="M239.964 436.275C237.372 440.293 236.106 442.54 239.658 447.066C243.565 452.044 246.386 449.516 249.553 448.493C254.484 446.922 264.626 443.872 271.467 442.473C277.768 441.184 278.912 435.585 275.614 431.383C273.178 428.28 270.151 426.686 265.664 428.955C261.485 431.085 257.459 433.409 252.976 435.151C255.115 431.487 258.104 427.575 260.497 424.234C264.294 418.956 263.691 416.191 260.444 412.054C258.16 409.144 255.22 409.258 253.475 410.628C251.6 412.099 251.798 412.884 250.754 414.748C246.977 416.459 243.612 416.697 239.328 417.761C241.943 414.037 244.862 410.702 247.781 407.366C251.711 402.923 250.905 399.9 248.216 396.473C245.476 392.982 240.611 393.04 237.299 398.669C234.508 403.366 228.604 413.014 225.504 417.85C222.977 421.818 221.393 423.793 224.944 428.318C228.902 433.36 231.848 431.257 235.093 430.068C236.317 429.63 240.642 428.221 244.137 427.881C243.046 430.617 240.759 435.024 239.964 436.275Z" fill="#332F30"/>
<path d="M290.109 459.275C293.396 461.74 293.035 464.551 290.421 468.035L286.279 473.558C282.138 479.08 280.576 483.764 286.493 488.202C289.123 490.174 292.92 490.865 295.632 487.249C298.738 483.107 296.273 481.874 298.689 478.653L303.225 472.604C307.613 466.753 309.635 458.305 300.497 451.451C296.946 448.789 292.542 447.95 290.323 448.443L294.908 442.329C296.092 440.751 297.965 439.075 299.543 440.258C300.266 440.801 300.48 441.474 300.135 441.935C299.79 442.395 299.412 442.625 299.067 443.085C298.13 444.334 298.212 446.142 300.907 448.164C303.932 450.432 307.104 450.038 309.964 446.224C312.626 442.674 313.432 436.807 305.608 430.939C297.39 424.776 289.862 428.375 284.077 436.363L272.999 451.681C270.254 455.478 267.608 457.089 264.107 461.757C262.036 464.518 260.409 468.742 265.011 472.193C269.811 475.793 274.018 472.785 276.089 470.024C279.491 465.487 279.475 464.14 281.546 461.378C283.617 458.617 286.756 456.76 290.109 459.275Z" fill="#332F30"/>
<path d="M322.979 452.735C320.413 457.699 325.292 461.146 327.555 462.315C331.497 464.353 335.093 462.049 336.527 459.275C338.565 455.332 336.545 452.438 332.676 450.439C329.245 448.665 324.752 449.303 322.979 452.735ZM311.717 475.776L306.889 484.937C302.175 493.879 305.268 498.993 310.816 501.861C316.219 504.653 319.903 503.967 322.167 499.587C323.828 496.374 323.157 494.27 321.04 493.176C320.31 492.799 319.797 492.718 319.359 492.492C318.264 491.926 318.087 491.372 319.106 489.401L322.766 482.32C324.804 478.377 325.944 478.319 328.019 474.304C329.642 471.165 327.333 467.936 323.755 466.087C320.908 464.616 316.939 464.599 314.524 469.271C313.241 471.754 312.622 474.024 311.717 475.776Z" fill="#332F30"/>
<path d="M337.205 518.458L339.495 511.166C340.394 513.447 343.241 515.585 346.835 516.756C356.133 519.786 365.09 514.58 368.528 504.032C371.965 493.484 369.434 484.275 358.652 480.761C353.026 478.928 349.347 480.667 347.237 483.696C348.223 479.609 347.713 477.196 343.337 475.77C339.352 474.471 337.053 476.488 336.111 479.379C335.5 481.254 335.644 483.462 334.6 486.666L326.147 512.607C325.077 515.889 323.615 518.783 322.928 520.893C321.68 524.721 323.598 527.853 327.661 529.177C332.115 530.629 335.276 529.152 336.549 525.245C337.211 523.214 336.594 520.333 337.205 518.458ZM356.001 500.036C354.906 503.396 352.404 506.297 348.107 504.897C344.825 503.827 343.377 501.108 344.6 497.358C345.771 493.764 348.113 490.291 352.332 491.666C355.848 492.812 357.401 495.738 356.001 500.036Z" fill="#332F30"/>
<path d="M386.924 530.652L387.61 523.04C388.974 525.077 392.211 526.56 395.972 526.94C405.702 527.923 413.346 520.931 414.461 509.893C415.576 498.855 411.144 490.395 399.861 489.255C393.974 488.661 390.75 491.143 389.331 494.552C389.426 490.349 388.414 488.099 383.835 487.637C379.665 487.215 377.847 489.675 377.542 492.7C377.344 494.663 377.955 496.789 377.616 500.142L374.874 527.287C374.527 530.721 373.715 533.861 373.492 536.068C373.087 540.075 375.627 542.727 379.879 543.156C384.54 543.627 387.314 541.512 387.727 537.424C387.941 535.298 386.726 532.614 386.924 530.652ZM401.371 508.653C401.015 512.169 399.189 515.536 394.692 515.082C391.257 514.735 389.265 512.386 389.661 508.462C390.041 504.701 391.59 500.81 396.006 501.256C399.685 501.627 401.825 504.156 401.371 508.653Z" fill="#332F30"/>
<path d="M421.641 509.226C422.802 521.002 430.635 527.58 443.229 526.338C454.27 525.25 457.58 521.125 457.12 516.463C456.838 513.601 454.993 511.636 451.639 511.966C449.104 512.216 445.667 514.207 443.786 514.392C436.671 515.093 433.412 512.194 432.936 507.369C432.404 501.971 436.528 500.243 439.718 499.929C441.926 499.711 442.579 500.473 442.668 501.372C442.748 502.19 442.052 502.672 441.562 502.72C440.907 502.784 440.368 502.342 438.569 502.519C437.179 502.657 434.846 504.125 435.12 506.906C435.419 509.932 438.008 511.906 444.06 511.31C451.911 510.536 455.262 505.994 454.657 499.86C453.779 490.946 446.783 487.837 439.014 488.602C426.256 489.86 420.714 499.82 421.641 509.226Z" fill="#332F30"/>
<path d="M479.445 474.593L481.858 481.932C479.947 481.072 477.356 480.514 473.283 481.806C463.569 484.885 460.016 494.891 463.171 504.84C466.176 514.319 473.843 521.371 484.497 517.994C489.432 516.429 491.985 512.516 491.857 508.85C494.893 512.715 497.996 513.8 503.322 512.112C507.631 510.746 508.835 506.657 507.866 503.602C506.997 500.86 504.937 499.53 502.994 499.112C500.948 498.64 500.297 498.76 499.104 495L492.275 473.457C490.934 469.227 490.857 467.354 489.467 462.967C488.424 459.677 485.126 457.705 480.817 459.071C476.587 460.412 474.309 463.29 475.576 467.285C476.743 470.967 478.597 472.19 479.445 474.593ZM475.598 501.073C474.356 497.156 474.918 494.305 479.148 492.964C482.281 491.971 484.626 493.383 485.718 496.83C486.786 500.198 486.96 504.281 483.2 505.473C479.44 506.665 476.665 504.441 475.598 501.073Z" fill="#332F30"/>
<path d="M545.681 474.577C543.265 476.285 540.433 475.269 537.633 471.311C535.687 468.56 534.021 465.208 532.74 463.397C529.703 459.103 525.89 457.27 521.596 460.307C518.375 462.585 517.119 465.789 518.732 468.071C520.44 470.486 521.704 469.995 522.843 471.605C525.026 474.691 527.142 477.825 529.419 481.046C535.351 489.432 541.843 492.491 549.76 486.891C554.054 483.854 555.997 479.057 555.345 475.29C557.816 478.072 560.428 479.345 564.722 476.308C568.68 473.508 567.959 470.496 566.25 468.08C563.877 464.726 561.377 464.179 558.625 460.288C555.92 456.463 553.372 451.723 551.806 449.509C549.243 445.886 546.085 442.986 540.919 446.64C536.155 450.009 538.007 454.336 540.333 457.624C542.089 460.106 544.457 462.458 546.117 464.806C549.487 469.569 548.566 472.536 545.681 474.577Z" fill="#332F30"/>
<path d="M591.306 458.372L585.623 453.26C588.072 453.39 591.199 451.688 593.757 448.905C600.375 441.705 599.36 431.395 591.192 423.887C583.024 416.379 573.596 414.856 565.921 423.206C561.917 427.562 561.972 431.631 563.851 434.809C560.542 432.214 558.135 431.676 555.021 435.064C552.184 438.15 553.064 441.079 555.302 443.137C556.754 444.471 558.823 445.257 561.304 447.537L581.39 466.001C583.932 468.337 585.957 470.869 587.591 472.371C590.556 475.096 594.201 474.651 597.093 471.505C600.263 468.057 600.233 464.568 597.207 461.788C595.634 460.342 592.758 459.707 591.306 458.372ZM582.354 433.623C584.956 436.014 586.556 439.495 583.497 442.822C581.162 445.363 578.087 445.551 575.183 442.881C572.4 440.323 570.214 436.751 573.217 433.484C575.72 430.761 579.027 430.564 582.354 433.623Z" fill="#332F30"/>
</svg>
