<svg width="2825" height="1818" viewBox="0 0 2825 1818" fill="none" xmlns="http://www.w3.org/2000/svg">
<rect width="2824" height="1818" fill="white"/>
<path d="M0 1225.4H2823.39V1818H0V1225.4Z" fill="#FFC99F"/>
<path d="M2784.31 1086.2L2823.39 1225.4H2792.86L2784.31 1086.2Z" fill="#FFC99F"/>
<path d="M228.529 1053.41C184.545 1061.43 95.2996 1031.61 0 832.043V1562.57H2814.45C2842.55 1372.81 2810 997.948 2717.15 1000.63C2624.29 1003.3 2508.39 1122.9 2409.42 1048.06C2310.46 973.226 2141.85 1016.88 2022.12 1048.06C1902.38 1079.24 1798.53 1037.37 1603.04 1007.97C1407.56 978.571 1256.05 999.09 1177.86 1032.05C1099.67 1065.02 968.934 1032.03 920.062 1020.44C871.191 1008.86 808.879 1054.33 757.564 1056.11C706.249 1057.89 670.817 1041.83 584.07 1064.99C497.323 1088.15 380.031 1032.94 351.93 1032.94C323.829 1032.94 272.514 1045.39 228.529 1053.41Z" fill="#FFC99F"/>
</svg>
